<?xml version="1.0" encoding="UTF-8" standalone="no"?>
<svg
   height="316.9808"
   width="316.98099"
   viewBox="0 0 31.698099 31.69808"
   preserveAspectRatio="xMinYMin"
   version="1.1"
   id="svg1"
   xmlns="http://www.w3.org/2000/svg"
   xmlns:svg="http://www.w3.org/2000/svg">
  <defs
     id="defs1" />
  <path
     d="M 27.126,4.57378 C 24.7333,2.18109 22.1774,3.72972 20.5778,5.32926 L 5.46756,20.44008 c -1.59954,1.5993 -3.27375,4.0295 -0.75548,6.5474 2.51826,2.5188 4.94845,0.8443 6.54762,-0.7553 l 15.1106,-15.1104 c 1.5996,-1.5997 3.1482,-4.1556 0.7557,-6.548 z"
     id="path1" />
  <path
     d="m 12.6898,3.9549 3.1995,3.19938 3.2568,-3.25673 C 19.3672,3.67593 19.5917,3.47026 19.8176,3.2763 19.4765,1.55559 18.4947,0 15.8878,0 13.276,0 12.2954,1.5617 11.9562,3.28614 12.2,3.49707 12.4434,3.70851 12.6898,3.9549 Z"
     id="path2" />
  <path
     d="m 19.1442,27.72108 -3.2547,-3.2549 -3.1979,3.1976 c -0.2428,0.243 -0.4845,0.4649 -0.7251,0.6735 0.3667,1.7541 1.4046,3.3608 3.9217,3.3608 2.5236,0 3.5601,-1.6153 3.9245,-3.3751 -0.2239,-0.1926 -0.4478,-0.3814 -0.6685,-0.6019 z"
     id="path3" />
  <path
     d="M 11.3327,11.71108 H 5.16431 C 2.90262,11.71108 0,12.42368 0,15.80708 c 0,2.5245 1.61583,3.5612 3.3759,3.9253 0.20839,-0.2406 7.9568,-8.0213 7.9568,-8.0213 z"
     id="path4" />
  <path
     d="m 28.4128,11.87538 c -0.1952,0.2271 -7.9599,8.0274 -7.9599,8.0274 h 6.0809 c 2.2618,0 5.1643,-0.5344 5.1643,-4.0957 0,-2.6115 -1.5612,-3.5926 -3.2853,-3.9317 z"
     id="path5" />
  <path
     d="m 13.3538,9.68638 1.102,-1.102 -3.1976,-3.1981 C 9.6585,3.78691 7.22864,2.11253 4.71038,4.6308 2.86376,6.47738 3.27392,8.27468 4.25339,9.73368 4.55171,9.71158 13.3538,9.68638 13.3538,9.68638 Z"
     id="path6" />
  <path
     d="m 18.4239,21.92758 -1.1049,1.1049 3.2571,3.2568 c 1.5996,1.5997 4.1555,3.148 6.5479,0.7556 1.7851,-1.7853 1.3755,-3.6605 0.3886,-5.1626 -0.3177,0.0229 -9.0887,0.0453 -9.0887,0.0453 z"
     id="path7" />
</svg>
